<svg xmlns="http://www.w3.org/2000/svg" xmlns:xlink="http://www.w3.org/1999/xlink" width="500" zoomAndPan="magnify" viewBox="0 0 375 374.999991" height="500" preserveAspectRatio="xMidYMid meet" version="1.0"><defs><g/><clipPath id="b2f591e8db"><path d="M 136 153 L 196 153 L 196 204 L 136 204 Z M 136 153 " clip-rule="nonzero"/></clipPath><clipPath id="ec128c93b6"><path d="M 132.84375 164.316406 L 186.566406 147.644531 L 199.683594 189.90625 L 145.960938 206.578125 Z M 132.84375 164.316406 " clip-rule="nonzero"/></clipPath><clipPath id="5345f292c3"><path d="M 132.84375 164.316406 L 186.566406 147.644531 L 199.683594 189.90625 L 145.960938 206.578125 Z M 132.84375 164.316406 " clip-rule="nonzero"/></clipPath><clipPath id="70ce1439d6"><path d="M 153.945312 152.140625 L 158.523438 152.140625 L 158.523438 156.71875 L 153.945312 156.71875 Z M 153.945312 152.140625 " clip-rule="nonzero"/></clipPath><clipPath id="3fe092740c"><path d="M 156.234375 152.140625 C 154.96875 152.140625 153.945312 153.164062 153.945312 154.429688 C 153.945312 155.691406 154.96875 156.71875 156.234375 156.71875 C 157.5 156.71875 158.523438 155.691406 158.523438 154.429688 C 158.523438 153.164062 157.5 152.140625 156.234375 152.140625 Z M 156.234375 152.140625 " clip-rule="nonzero"/></clipPath></defs><rect x="-37.5" width="450" fill="#ffffff" y="-37.499999" height="449.999989" fill-opacity="1"/><rect x="-37.5" width="450" fill="#fffdf8" y="-37.499999" height="449.999989" fill-opacity="1"/><g clip-path="url(#b2f591e8db)"><g clip-path="url(#ec128c93b6)"><g clip-path="url(#5345f292c3)"><path fill="#c38820" d="M 155.882812 203.316406 C 155.378906 203.1875 155.269531 203.074219 153.910156 201.28125 C 153.25 200.402344 152.644531 199.683594 152.566406 199.675781 C 152.488281 199.671875 151.503906 200.550781 150.378906 201.628906 C 148.1875 203.726562 148.117188 203.773438 147.398438 203.570312 C 146.808594 203.398438 146.394531 202.617188 146.554688 201.980469 C 146.644531 201.617188 147.941406 200.253906 149.929688 198.429688 C 150.648438 197.769531 150.910156 197.46875 150.871094 197.347656 C 150.84375 197.253906 149.925781 195.984375 148.835938 194.527344 C 144.121094 188.210938 139.191406 181.179688 137.703125 178.648438 C 136.894531 177.277344 136.46875 176.007812 136.59375 175.339844 C 136.714844 174.6875 137.046875 174.375 137.921875 174.097656 C 138.605469 173.882812 138.683594 173.878906 139.324219 174.0625 C 140.28125 174.335938 142.566406 175.59375 145.730469 177.59375 C 147.230469 178.542969 148.507812 179.304688 148.574219 179.285156 C 148.699219 179.253906 148.683594 179.066406 148.449219 177.765625 C 148.03125 175.460938 147.894531 173.507812 148.066406 172.308594 C 148.171875 171.558594 148.621094 170.734375 149.0625 170.476562 C 150.40625 169.691406 151.9375 169.996094 155.652344 171.792969 C 157.007812 172.449219 157.777344 172.949219 158.238281 173.476562 C 158.394531 173.65625 158.574219 173.789062 158.636719 173.769531 C 158.699219 173.75 158.773438 173.433594 158.804688 173.066406 C 158.910156 171.699219 158.691406 170.257812 157.660156 165.441406 C 156.488281 159.988281 156.378906 158.941406 156.851562 157.707031 C 157.160156 156.902344 157.566406 156.648438 158.585938 156.632812 C 158.996094 156.628906 159.289062 156.703125 159.660156 156.917969 C 160.675781 157.492188 162.382812 159.453125 165.8125 163.976562 C 168.300781 167.257812 170.066406 169.421875 170.308594 169.480469 C 170.460938 169.523438 170.429688 169.628906 170.824219 167.640625 C 171.40625 164.703125 172.199219 162.472656 172.902344 161.777344 C 173.273438 161.410156 174.054688 161.050781 174.503906 161.035156 C 175.136719 161.015625 176.402344 161.761719 177.328125 162.699219 C 178.304688 163.695312 179.421875 165.007812 180.160156 166.035156 C 180.625 166.679688 180.773438 166.972656 180.992188 167.671875 C 181.136719 168.140625 181.292969 168.511719 181.335938 168.496094 C 181.492188 168.449219 181.992188 167.691406 182.351562 166.964844 C 182.953125 165.742188 183.097656 164.433594 183.234375 158.894531 C 183.285156 156.921875 183.375 155.0625 183.433594 154.757812 C 183.578125 154.003906 183.933594 153.578125 184.507812 153.453125 C 185.109375 153.328125 185.980469 153.488281 186.371094 153.796875 C 186.695312 154.054688 186.699219 154.0625 187.296875 156.164062 C 187.882812 158.234375 188.210938 159.707031 188.800781 162.945312 C 189.71875 167.964844 190.839844 176.527344 190.589844 176.585938 C 190.46875 176.613281 188.976562 171.824219 187.292969 166.023438 C 186.507812 163.308594 186.0625 161.902344 186.023438 161.984375 C 185.988281 162.050781 185.9375 162.585938 185.90625 163.167969 C 185.878906 163.75 185.753906 164.890625 185.625 165.707031 C 185.40625 167.128906 185.367188 167.238281 184.699219 168.496094 C 183.484375 170.777344 181.800781 172.324219 179.203125 173.550781 C 177.980469 174.128906 175.652344 174.824219 174.871094 174.847656 C 173.847656 174.878906 172.789062 174.636719 171.757812 174.140625 C 169.5 173.050781 168.191406 171.710938 163.929688 166.128906 C 161.796875 163.328125 160.277344 161.398438 159.945312 161.054688 L 159.671875 160.773438 L 159.65625 161.039062 C 159.644531 161.183594 159.816406 162.140625 160.039062 163.164062 C 161.636719 170.535156 161.8125 171.863281 161.492188 174.113281 C 161.039062 177.351562 159.585938 180.285156 157.425781 182.328125 C 155.789062 183.878906 154.652344 184.242188 152.449219 183.921875 C 150.382812 183.625 149.082031 183.003906 144.332031 180.03125 C 140.644531 177.730469 140.640625 177.726562 140.582031 177.835938 C 140.453125 178.070312 145.390625 185.167969 150.023438 191.410156 C 151.269531 193.089844 152.453125 194.683594 152.648438 194.953125 C 152.851562 195.222656 153.066406 195.421875 153.140625 195.398438 C 153.210938 195.378906 153.574219 195.097656 153.945312 194.773438 C 157.425781 191.75 164.652344 187.882812 175.226562 183.386719 C 180.304688 181.226562 182.335938 180.488281 185.722656 179.5625 C 188.828125 178.714844 191.269531 178.296875 194.390625 178.074219 C 196.054688 177.957031 196.113281 178.066406 194.777344 178.820312 C 192.308594 180.222656 190.742188 180.832031 186.261719 182.136719 C 182.378906 183.269531 181.265625 183.671875 176.878906 185.53125 C 165.804688 190.234375 158.675781 194.035156 155.398438 196.992188 C 154.757812 197.566406 154.707031 197.640625 154.828125 197.820312 C 154.902344 197.929688 155.507812 198.734375 156.175781 199.609375 C 157.484375 201.328125 157.691406 201.746094 157.539062 202.351562 C 157.363281 203.046875 156.59375 203.496094 155.882812 203.316406 Z M 155.523438 180.285156 C 155.882812 179.941406 156.390625 179.363281 156.652344 179 C 157.175781 178.265625 158.101562 176.441406 158.222656 175.898438 L 158.300781 175.550781 L 157.394531 175.417969 C 156.675781 175.316406 156.207031 175.152344 155.140625 174.640625 C 153.46875 173.835938 151.621094 173.058594 151.199219 172.980469 C 151.023438 172.949219 150.859375 172.972656 150.828125 173.027344 C 150.722656 173.226562 150.855469 175.082031 151.074219 176.480469 C 151.335938 178.152344 151.898438 180.867188 152.003906 180.960938 C 152.109375 181.050781 153.136719 181.21875 153.640625 181.230469 C 154.269531 181.242188 154.792969 180.976562 155.523438 180.285156 Z M 178.125 170.945312 C 178.894531 170.601562 179.96875 169.925781 180.128906 169.683594 C 180.195312 169.582031 180.074219 169.46875 179.632812 169.203125 C 178.832031 168.726562 178.515625 168.417969 177.3125 166.929688 C 176.234375 165.601562 175.007812 164.265625 174.816406 164.214844 C 174.671875 164.179688 174.535156 164.457031 174.25 165.414062 C 173.765625 167.039062 172.910156 171.222656 173.003906 171.519531 C 173.113281 171.875 174.246094 172.121094 175.109375 171.984375 C 175.738281 171.886719 176.96875 171.460938 178.125 170.945312 Z M 178.125 170.945312 " fill-opacity="1" fill-rule="nonzero"/></g></g></g><g fill="#076d3c" fill-opacity="1"><g transform="translate(83.107842, 252.354511)"><g><path d="M 47.453125 -32.8125 C 49.140625 -31.125 50.5625 -28.875 51.71875 -26.0625 C 52.875 -23.25 53.957031 -20.300781 54.96875 -17.21875 C 55.988281 -14.132812 57.054688 -11.238281 58.171875 -8.53125 C 59.285156 -5.820312 60.640625 -3.703125 62.234375 -2.171875 C 63.828125 -0.648438 65.773438 -0.128906 68.078125 -0.609375 L 68.078125 0 C 66.785156 1.289062 64.988281 2.304688 62.6875 3.046875 C 60.382812 3.796875 57.878906 4.203125 55.171875 4.265625 C 51.847656 4.265625 49.019531 3.550781 46.6875 2.125 C 44.351562 0.707031 42.390625 -1.164062 40.796875 -3.5 C 39.203125 -5.84375 37.878906 -8.414062 36.828125 -11.21875 C 35.785156 -14.03125 34.90625 -16.84375 34.1875 -19.65625 C 33.476562 -22.46875 32.816406 -25.054688 32.203125 -27.421875 C 31.597656 -29.796875 30.9375 -31.695312 30.21875 -33.125 C 29.507812 -34.550781 28.613281 -35.265625 27.53125 -35.265625 L 27.03125 -35.265625 C 27.03125 -34.378906 27.03125 -33.53125 27.03125 -32.71875 C 27.03125 -31.90625 27.03125 -31.160156 27.03125 -30.484375 L 27.03125 -6.703125 C 27.03125 -5.015625 27.640625 -3.578125 28.859375 -2.390625 C 30.078125 -1.203125 31.53125 -0.609375 33.21875 -0.609375 L 33.21875 0 L 3.046875 0 L 3.046875 -0.609375 C 4.742188 -0.609375 6.179688 -1.203125 7.359375 -2.390625 C 8.546875 -3.578125 9.140625 -5.015625 9.140625 -6.703125 C 9.140625 -12.054688 9.140625 -16.644531 9.140625 -20.46875 C 9.140625 -24.300781 9.140625 -27.773438 9.140625 -30.890625 C 9.140625 -34.003906 9.140625 -37.117188 9.140625 -40.234375 C 9.140625 -43.347656 9.140625 -46.816406 9.140625 -50.640625 C 9.140625 -54.472656 9.140625 -59.066406 9.140625 -64.421875 C 9.140625 -66.109375 8.546875 -67.546875 7.359375 -68.734375 C 6.179688 -69.921875 4.742188 -70.515625 3.046875 -70.515625 L 3.046875 -71.125 L 43.484375 -71.125 C 47.003906 -71.125 50.203125 -70.328125 53.078125 -68.734375 C 55.960938 -67.140625 58.269531 -65.003906 60 -62.328125 C 61.726562 -59.660156 62.59375 -56.664062 62.59375 -53.34375 C 62.59375 -50.09375 61.726562 -47.113281 60 -44.40625 C 58.269531 -41.695312 55.960938 -39.546875 53.078125 -37.953125 C 50.203125 -36.359375 47.003906 -35.5625 43.484375 -35.5625 L 41.96875 -35.5625 C 41.96875 -35.5625 42.578125 -35.425781 43.796875 -35.15625 C 45.015625 -34.882812 46.234375 -34.101562 47.453125 -32.8125 Z M 33.734375 -35.875 C 35.765625 -35.875 37.59375 -36.648438 39.21875 -38.203125 C 40.84375 -39.765625 42.144531 -41.863281 43.125 -44.5 C 44.113281 -47.144531 44.609375 -50.0625 44.609375 -53.25 C 44.609375 -56.425781 44.113281 -59.316406 43.125 -61.921875 C 42.144531 -64.535156 40.84375 -66.617188 39.21875 -68.171875 C 37.59375 -69.734375 35.765625 -70.515625 33.734375 -70.515625 L 27.03125 -70.515625 C 27.03125 -64.285156 27.03125 -59.132812 27.03125 -55.0625 C 27.03125 -51 27.03125 -47.75 27.03125 -45.3125 C 27.03125 -42.875 27.03125 -41.046875 27.03125 -39.828125 C 27.03125 -38.609375 27.03125 -37.726562 27.03125 -37.1875 C 27.03125 -36.644531 27.03125 -36.207031 27.03125 -35.875 Z M 33.734375 -35.875 "/></g></g></g><g fill="#076d3c" fill-opacity="1"><g transform="translate(144.371049, 252.354511)"><g><path d="M 35.359375 -6.5 C 37.328125 -6.5 39.207031 -6.972656 41 -7.921875 C 42.789062 -8.867188 44.398438 -10.191406 45.828125 -11.890625 L 46.328125 -11.578125 C 44.296875 -7.921875 41.550781 -4.988281 38.09375 -2.78125 C 34.644531 -0.582031 30.851562 0.515625 26.71875 0.515625 C 22.457031 0.515625 18.582031 -0.632812 15.09375 -2.9375 C 11.601562 -5.25 8.804688 -8.351562 6.703125 -12.25 C 4.609375 -16.144531 3.5625 -20.460938 3.5625 -25.203125 C 3.5625 -29.941406 4.609375 -34.257812 6.703125 -38.15625 C 8.804688 -42.050781 11.601562 -45.148438 15.09375 -47.453125 C 18.582031 -49.753906 22.457031 -50.90625 26.71875 -50.90625 C 30.445312 -50.90625 33.785156 -50.023438 36.734375 -48.265625 C 39.679688 -46.503906 42.148438 -44.113281 44.140625 -41.09375 C 46.140625 -38.082031 47.515625 -34.644531 48.265625 -30.78125 L 18.796875 -30.78125 C 18.796875 -26.3125 19.539062 -22.226562 21.03125 -18.53125 C 22.519531 -14.84375 24.515625 -11.914062 27.015625 -9.75 C 29.523438 -7.582031 32.304688 -6.5 35.359375 -6.5 Z M 26.71875 -50.296875 C 25.300781 -50.296875 24.132812 -49.769531 23.21875 -48.71875 C 22.300781 -47.664062 21.535156 -46.3125 20.921875 -44.65625 C 20.316406 -43 19.878906 -41.289062 19.609375 -39.53125 C 19.335938 -37.769531 19.132812 -36.140625 19 -34.640625 C 18.863281 -33.148438 18.796875 -32.066406 18.796875 -31.390625 L 34.453125 -31.390625 C 33.835938 -43.992188 31.257812 -50.296875 26.71875 -50.296875 Z M 26.71875 -50.296875 "/></g></g></g><g fill="#076d3c" fill-opacity="1"><g transform="translate(186.330413, 252.354511)"><g><path d="M 6.703125 -5.59375 L 6.703125 -41.765625 C 6.703125 -43.046875 6.296875 -44.144531 5.484375 -45.0625 C 4.671875 -45.976562 3.691406 -46.535156 2.546875 -46.734375 L 2.546875 -47.34375 L 19.921875 -49.890625 C 19.984375 -49.890625 20.03125 -49.890625 20.0625 -49.890625 C 20.101562 -49.890625 20.15625 -49.890625 20.21875 -49.890625 C 21.375 -49.890625 21.953125 -49.3125 21.953125 -48.15625 L 21.953125 -5.59375 C 21.953125 -4.375 22.359375 -3.289062 23.171875 -2.34375 C 23.984375 -1.394531 24.960938 -0.816406 26.109375 -0.609375 L 26.109375 0 L 2.546875 0 L 2.546875 -0.609375 C 3.691406 -0.816406 4.671875 -1.394531 5.484375 -2.34375 C 6.296875 -3.289062 6.703125 -4.375 6.703125 -5.59375 Z M 22.25 -63.203125 C 22.25 -61.097656 21.46875 -59.265625 19.90625 -57.703125 C 18.351562 -56.148438 16.492188 -55.375 14.328125 -55.375 C 12.160156 -55.375 10.3125 -56.148438 8.78125 -57.703125 C 7.257812 -59.265625 6.5 -61.097656 6.5 -63.203125 C 6.5 -65.367188 7.257812 -67.226562 8.78125 -68.78125 C 10.3125 -70.34375 12.160156 -71.125 14.328125 -71.125 C 16.492188 -71.125 18.351562 -70.34375 19.90625 -68.78125 C 21.46875 -67.226562 22.25 -65.367188 22.25 -63.203125 Z M 22.25 -63.203125 "/></g></g></g><g fill="#076d3c" fill-opacity="1"><g transform="translate(206.141167, 252.354511)"><g><path d="M 48.671875 -5.59375 C 48.671875 -4.375 49.078125 -3.289062 49.890625 -2.34375 C 50.703125 -1.394531 51.6875 -0.816406 52.84375 -0.609375 L 52.84375 0 L 29.265625 0 L 29.265625 -0.609375 C 30.410156 -0.816406 31.390625 -1.394531 32.203125 -2.34375 C 33.015625 -3.289062 33.421875 -4.375 33.421875 -5.59375 L 33.421875 -35.5625 C 33.421875 -37.320312 33.863281 -38.707031 34.75 -39.71875 C 35.632812 -40.738281 36.515625 -41.707031 37.390625 -42.625 C 38.273438 -43.539062 38.71875 -44.609375 38.71875 -45.828125 C 38.71875 -46.972656 38.070312 -47.847656 36.78125 -48.453125 C 35.5 -49.066406 33.835938 -49.375 31.796875 -49.375 C 29.566406 -49.375 27.570312 -49.085938 25.8125 -48.515625 C 24.050781 -47.941406 22.765625 -47.453125 21.953125 -47.046875 L 21.953125 -5.59375 C 21.953125 -4.375 22.359375 -3.289062 23.171875 -2.34375 C 23.984375 -1.394531 24.960938 -0.816406 26.109375 -0.609375 L 26.109375 0 L 2.546875 0 L 2.546875 -0.609375 C 3.691406 -0.816406 4.671875 -1.394531 5.484375 -2.34375 C 6.296875 -3.289062 6.703125 -4.375 6.703125 -5.59375 L 6.703125 -41.765625 C 6.703125 -43.046875 6.296875 -44.144531 5.484375 -45.0625 C 4.671875 -45.976562 3.691406 -46.535156 2.546875 -46.734375 L 2.546875 -47.34375 L 19.921875 -49.890625 C 19.984375 -49.890625 20.03125 -49.890625 20.0625 -49.890625 C 20.101562 -49.890625 20.15625 -49.890625 20.21875 -49.890625 C 21.375 -49.890625 21.953125 -49.3125 21.953125 -48.15625 L 21.953125 -47.75 C 23.847656 -48.695312 25.960938 -49.457031 28.296875 -50.03125 C 30.628906 -50.613281 32.984375 -50.90625 35.359375 -50.90625 C 37.734375 -50.90625 39.9375 -50.445312 41.96875 -49.53125 C 44 -48.613281 45.625 -47.15625 46.84375 -45.15625 C 48.0625 -43.164062 48.671875 -40.441406 48.671875 -36.984375 Z M 48.671875 -5.59375 "/></g></g></g><g fill="#076d3c" fill-opacity="1"><g transform="translate(252.672498, 252.354511)"><g><path d="M 26.71875 -50.90625 C 30.988281 -50.90625 34.867188 -49.753906 38.359375 -47.453125 C 41.847656 -45.148438 44.640625 -42.050781 46.734375 -38.15625 C 48.835938 -34.257812 49.890625 -29.941406 49.890625 -25.203125 C 49.890625 -20.460938 48.835938 -16.144531 46.734375 -12.25 C 44.640625 -8.351562 41.847656 -5.25 38.359375 -2.9375 C 34.867188 -0.632812 30.988281 0.515625 26.71875 0.515625 C 22.457031 0.515625 18.582031 -0.632812 15.09375 -2.9375 C 11.601562 -5.25 8.804688 -8.351562 6.703125 -12.25 C 4.609375 -16.144531 3.5625 -20.460938 3.5625 -25.203125 C 3.5625 -29.941406 4.609375 -34.257812 6.703125 -38.15625 C 8.804688 -42.050781 11.601562 -45.148438 15.09375 -47.453125 C 18.582031 -49.753906 22.457031 -50.90625 26.71875 -50.90625 Z M 26.71875 -0.109375 C 31.9375 -0.109375 34.546875 -8.472656 34.546875 -25.203125 C 34.546875 -41.929688 31.9375 -50.296875 26.71875 -50.296875 C 21.4375 -50.296875 18.796875 -41.929688 18.796875 -25.203125 C 18.796875 -8.472656 21.4375 -0.109375 26.71875 -0.109375 Z M 26.71875 -0.109375 "/></g></g></g><g fill="#000000" fill-opacity="1"><g transform="translate(89.248781, 271.609015)"><g><path d="M 2.078125 -2.171875 L 3.546875 -2.171875 L 2.828125 -4.453125 L 2.8125 -4.453125 Z M 1.359375 0 L 0.09375 0 L 2.140625 -5.75 L 3.53125 -5.75 L 5.5625 0 L 4.25 0 L 3.890625 -1.1875 L 1.765625 -1.1875 Z M 1.359375 0 "/></g></g></g><g fill="#000000" fill-opacity="1"><g transform="translate(99.061124, 271.609015)"><g><path d="M 2.90625 -3.0625 C 3.207031 -3.0625 3.429688 -3.128906 3.578125 -3.265625 C 3.722656 -3.410156 3.796875 -3.632812 3.796875 -3.9375 C 3.796875 -4.238281 3.710938 -4.445312 3.546875 -4.5625 C 3.378906 -4.6875 3.132812 -4.75 2.8125 -4.75 L 1.78125 -4.75 L 1.78125 -3.0625 Z M 1.78125 0 L 0.59375 0 L 0.59375 -5.75 L 3.203125 -5.75 C 3.753906 -5.75 4.191406 -5.582031 4.515625 -5.25 C 4.835938 -4.925781 5 -4.476562 5 -3.90625 C 5 -3.414062 4.835938 -2.988281 4.515625 -2.625 C 4.203125 -2.257812 3.75 -2.078125 3.15625 -2.078125 L 1.78125 -2.078125 Z M 1.78125 0 "/></g></g></g><g fill="#000000" fill-opacity="1"><g transform="translate(108.50628, 271.609015)"><g><path d="M 2.078125 -2.171875 L 3.546875 -2.171875 L 2.828125 -4.453125 L 2.8125 -4.453125 Z M 1.359375 0 L 0.09375 0 L 2.140625 -5.75 L 3.53125 -5.75 L 5.5625 0 L 4.25 0 L 3.890625 -1.1875 L 1.765625 -1.1875 Z M 1.359375 0 "/></g></g></g><g fill="#000000" fill-opacity="1"><g transform="translate(118.318625, 271.609015)"><g><path d="M 1.484375 -1.765625 C 1.484375 -1.484375 1.585938 -1.257812 1.796875 -1.09375 C 2.003906 -0.925781 2.304688 -0.84375 2.703125 -0.84375 C 3.085938 -0.84375 3.382812 -0.90625 3.59375 -1.03125 C 3.800781 -1.15625 3.90625 -1.34375 3.90625 -1.59375 C 3.90625 -1.738281 3.847656 -1.863281 3.734375 -1.96875 C 3.628906 -2.070312 3.378906 -2.171875 2.984375 -2.265625 L 2.015625 -2.5 C 1.398438 -2.644531 0.976562 -2.84375 0.75 -3.09375 C 0.53125 -3.34375 0.421875 -3.6875 0.421875 -4.125 C 0.421875 -4.644531 0.601562 -5.066406 0.96875 -5.390625 C 1.34375 -5.722656 1.894531 -5.890625 2.625 -5.890625 C 3.363281 -5.890625 3.921875 -5.703125 4.296875 -5.328125 C 4.671875 -4.960938 4.863281 -4.535156 4.875 -4.046875 L 3.71875 -4.046875 C 3.6875 -4.328125 3.570312 -4.539062 3.375 -4.6875 C 3.1875 -4.832031 2.910156 -4.90625 2.546875 -4.90625 C 2.242188 -4.90625 2 -4.84375 1.8125 -4.71875 C 1.632812 -4.59375 1.546875 -4.425781 1.546875 -4.21875 C 1.546875 -4.070312 1.582031 -3.945312 1.65625 -3.84375 C 1.738281 -3.75 1.867188 -3.679688 2.046875 -3.640625 L 3.59375 -3.265625 C 4.144531 -3.128906 4.523438 -2.929688 4.734375 -2.671875 C 4.941406 -2.421875 5.046875 -2.109375 5.046875 -1.734375 C 5.046875 -1.109375 4.828125 -0.632812 4.390625 -0.3125 C 3.960938 0 3.429688 0.15625 2.796875 0.15625 C 1.960938 0.15625 1.34375 -0.0195312 0.9375 -0.375 C 0.53125 -0.726562 0.328125 -1.191406 0.328125 -1.765625 Z M 1.484375 -1.765625 "/></g></g></g><g fill="#000000" fill-opacity="1"><g transform="translate(127.841904, 271.609015)"><g><path d="M 1.78125 0 L 0.59375 0 L 0.59375 -5.75 L 1.78125 -5.75 Z M 1.78125 0 "/></g></g></g><g fill="#000000" fill-opacity="1"><g transform="translate(134.372996, 271.609015)"><g><path d="M 1.53125 -2.875 C 1.53125 -2.207031 1.675781 -1.703125 1.96875 -1.359375 C 2.269531 -1.023438 2.648438 -0.859375 3.109375 -0.859375 C 3.566406 -0.859375 3.9375 -1.03125 4.21875 -1.375 C 4.507812 -1.726562 4.65625 -2.226562 4.65625 -2.875 C 4.65625 -3.519531 4.507812 -4.015625 4.21875 -4.359375 C 3.9375 -4.703125 3.5625 -4.875 3.09375 -4.875 C 2.625 -4.875 2.242188 -4.703125 1.953125 -4.359375 C 1.671875 -4.015625 1.53125 -3.519531 1.53125 -2.875 Z M 0.328125 -2.875 C 0.328125 -3.851562 0.582031 -4.597656 1.09375 -5.109375 C 1.613281 -5.628906 2.273438 -5.890625 3.078125 -5.890625 C 3.890625 -5.890625 4.554688 -5.632812 5.078125 -5.125 C 5.597656 -4.625 5.859375 -3.875 5.859375 -2.875 C 5.859375 -1.894531 5.601562 -1.144531 5.09375 -0.625 C 4.582031 -0.101562 3.914062 0.15625 3.09375 0.15625 C 2.3125 0.15625 1.65625 -0.0859375 1.125 -0.578125 C 0.59375 -1.078125 0.328125 -1.84375 0.328125 -2.875 Z M 0.328125 -2.875 "/></g></g></g><g fill="#000000" fill-opacity="1"><g transform="translate(144.716589, 271.609015)"><g><path d="M 4.15625 -5.75 L 5.265625 -5.75 L 5.265625 0 L 4.0625 0 L 1.71875 -4.09375 L 1.703125 -4.09375 L 1.703125 0 L 0.59375 0 L 0.59375 -5.75 L 1.859375 -5.75 L 4.140625 -1.75 L 4.15625 -1.75 Z M 4.15625 -5.75 "/></g></g></g><g fill="#000000" fill-opacity="1"><g transform="translate(154.728149, 271.609015)"><g><path d="M 2.078125 -2.171875 L 3.546875 -2.171875 L 2.828125 -4.453125 L 2.8125 -4.453125 Z M 1.359375 0 L 0.09375 0 L 2.140625 -5.75 L 3.53125 -5.75 L 5.5625 0 L 4.25 0 L 3.890625 -1.1875 L 1.765625 -1.1875 Z M 1.359375 0 "/></g></g></g><g fill="#000000" fill-opacity="1"><g transform="translate(164.540492, 271.609015)"><g><path d="M 1.765625 -1 L 2.9375 -1 C 3.34375 -1 3.660156 -1.171875 3.890625 -1.515625 C 4.117188 -1.859375 4.234375 -2.328125 4.234375 -2.921875 C 4.234375 -3.535156 4.128906 -3.992188 3.921875 -4.296875 C 3.710938 -4.597656 3.390625 -4.75 2.953125 -4.75 L 1.765625 -4.75 Z M 0.59375 -5.75 L 3.125 -5.75 C 3.894531 -5.75 4.472656 -5.492188 4.859375 -4.984375 C 5.253906 -4.484375 5.453125 -3.828125 5.453125 -3.015625 C 5.453125 -2.109375 5.242188 -1.378906 4.828125 -0.828125 C 4.421875 -0.273438 3.835938 0 3.078125 0 L 0.59375 0 Z M 0.59375 -5.75 "/></g></g></g><g fill="#000000" fill-opacity="1"><g transform="translate(174.509084, 271.609015)"><g><path d="M 1.53125 -2.875 C 1.53125 -2.207031 1.675781 -1.703125 1.96875 -1.359375 C 2.269531 -1.023438 2.648438 -0.859375 3.109375 -0.859375 C 3.566406 -0.859375 3.9375 -1.03125 4.21875 -1.375 C 4.507812 -1.726562 4.65625 -2.226562 4.65625 -2.875 C 4.65625 -3.519531 4.507812 -4.015625 4.21875 -4.359375 C 3.9375 -4.703125 3.5625 -4.875 3.09375 -4.875 C 2.625 -4.875 2.242188 -4.703125 1.953125 -4.359375 C 1.671875 -4.015625 1.53125 -3.519531 1.53125 -2.875 Z M 0.328125 -2.875 C 0.328125 -3.851562 0.582031 -4.597656 1.09375 -5.109375 C 1.613281 -5.628906 2.273438 -5.890625 3.078125 -5.890625 C 3.890625 -5.890625 4.554688 -5.632812 5.078125 -5.125 C 5.597656 -4.625 5.859375 -3.875 5.859375 -2.875 C 5.859375 -1.894531 5.601562 -1.144531 5.09375 -0.625 C 4.582031 -0.101562 3.914062 0.15625 3.09375 0.15625 C 2.3125 0.15625 1.65625 -0.0859375 1.125 -0.578125 C 0.59375 -1.078125 0.328125 -1.84375 0.328125 -2.875 Z M 0.328125 -2.875 "/></g></g></g><g fill="#000000" fill-opacity="1"><g transform="translate(184.852681, 271.609015)"><g><path d="M 1.484375 -1.765625 C 1.484375 -1.484375 1.585938 -1.257812 1.796875 -1.09375 C 2.003906 -0.925781 2.304688 -0.84375 2.703125 -0.84375 C 3.085938 -0.84375 3.382812 -0.90625 3.59375 -1.03125 C 3.800781 -1.15625 3.90625 -1.34375 3.90625 -1.59375 C 3.90625 -1.738281 3.847656 -1.863281 3.734375 -1.96875 C 3.628906 -2.070312 3.378906 -2.171875 2.984375 -2.265625 L 2.015625 -2.5 C 1.398438 -2.644531 0.976562 -2.84375 0.75 -3.09375 C 0.53125 -3.34375 0.421875 -3.6875 0.421875 -4.125 C 0.421875 -4.644531 0.601562 -5.066406 0.96875 -5.390625 C 1.34375 -5.722656 1.894531 -5.890625 2.625 -5.890625 C 3.363281 -5.890625 3.921875 -5.703125 4.296875 -5.328125 C 4.671875 -4.960938 4.863281 -4.535156 4.875 -4.046875 L 3.71875 -4.046875 C 3.6875 -4.328125 3.570312 -4.539062 3.375 -4.6875 C 3.1875 -4.832031 2.910156 -4.90625 2.546875 -4.90625 C 2.242188 -4.90625 2 -4.84375 1.8125 -4.71875 C 1.632812 -4.59375 1.546875 -4.425781 1.546875 -4.21875 C 1.546875 -4.070312 1.582031 -3.945312 1.65625 -3.84375 C 1.738281 -3.75 1.867188 -3.679688 2.046875 -3.640625 L 3.59375 -3.265625 C 4.144531 -3.128906 4.523438 -2.929688 4.734375 -2.671875 C 4.941406 -2.421875 5.046875 -2.109375 5.046875 -1.734375 C 5.046875 -1.109375 4.828125 -0.632812 4.390625 -0.3125 C 3.960938 0 3.429688 0.15625 2.796875 0.15625 C 1.960938 0.15625 1.34375 -0.0195312 0.9375 -0.375 C 0.53125 -0.726562 0.328125 -1.191406 0.328125 -1.765625 Z M 1.484375 -1.765625 "/></g></g></g><g fill="#000000" fill-opacity="1"><g transform="translate(194.375966, 271.609015)"><g/></g></g><g fill="#000000" fill-opacity="1"><g transform="translate(200.684407, 271.609015)"><g><path d="M 2.90625 -3.0625 C 3.207031 -3.0625 3.429688 -3.128906 3.578125 -3.265625 C 3.722656 -3.410156 3.796875 -3.632812 3.796875 -3.9375 C 3.796875 -4.238281 3.710938 -4.445312 3.546875 -4.5625 C 3.378906 -4.6875 3.132812 -4.75 2.8125 -4.75 L 1.78125 -4.75 L 1.78125 -3.0625 Z M 1.78125 0 L 0.59375 0 L 0.59375 -5.75 L 3.203125 -5.75 C 3.753906 -5.75 4.191406 -5.582031 4.515625 -5.25 C 4.835938 -4.925781 5 -4.476562 5 -3.90625 C 5 -3.414062 4.835938 -2.988281 4.515625 -2.625 C 4.203125 -2.257812 3.75 -2.078125 3.15625 -2.078125 L 1.78125 -2.078125 Z M 1.78125 0 "/></g></g></g><g fill="#000000" fill-opacity="1"><g transform="translate(210.129566, 271.609015)"><g><path d="M 1.53125 -2.875 C 1.53125 -2.207031 1.675781 -1.703125 1.96875 -1.359375 C 2.269531 -1.023438 2.648438 -0.859375 3.109375 -0.859375 C 3.566406 -0.859375 3.9375 -1.03125 4.21875 -1.375 C 4.507812 -1.726562 4.65625 -2.226562 4.65625 -2.875 C 4.65625 -3.519531 4.507812 -4.015625 4.21875 -4.359375 C 3.9375 -4.703125 3.5625 -4.875 3.09375 -4.875 C 2.625 -4.875 2.242188 -4.703125 1.953125 -4.359375 C 1.671875 -4.015625 1.53125 -3.519531 1.53125 -2.875 Z M 0.328125 -2.875 C 0.328125 -3.851562 0.582031 -4.597656 1.09375 -5.109375 C 1.613281 -5.628906 2.273438 -5.890625 3.078125 -5.890625 C 3.890625 -5.890625 4.554688 -5.632812 5.078125 -5.125 C 5.597656 -4.625 5.859375 -3.875 5.859375 -2.875 C 5.859375 -1.894531 5.601562 -1.144531 5.09375 -0.625 C 4.582031 -0.101562 3.914062 0.15625 3.09375 0.15625 C 2.3125 0.15625 1.65625 -0.0859375 1.125 -0.578125 C 0.59375 -1.078125 0.328125 -1.84375 0.328125 -2.875 Z M 0.328125 -2.875 "/></g></g></g><g fill="#000000" fill-opacity="1"><g transform="translate(220.473163, 271.609015)"><g><path d="M 3.171875 -3.21875 C 3.484375 -3.21875 3.710938 -3.273438 3.859375 -3.390625 C 4.015625 -3.515625 4.09375 -3.71875 4.09375 -4 C 4.09375 -4.238281 4.019531 -4.421875 3.875 -4.546875 C 3.738281 -4.679688 3.535156 -4.75 3.265625 -4.75 L 1.765625 -4.75 L 1.765625 -3.21875 Z M 0.59375 -5.75 L 3.484375 -5.75 C 4.078125 -5.75 4.523438 -5.585938 4.828125 -5.265625 C 5.140625 -4.953125 5.296875 -4.570312 5.296875 -4.125 C 5.296875 -3.457031 5 -3 4.40625 -2.75 C 4.6875 -2.644531 4.878906 -2.492188 4.984375 -2.296875 C 5.085938 -2.109375 5.140625 -1.753906 5.140625 -1.234375 C 5.140625 -0.722656 5.15625 -0.421875 5.1875 -0.328125 C 5.226562 -0.242188 5.296875 -0.1875 5.390625 -0.15625 L 5.390625 0 L 4.0625 0 C 3.976562 -0.257812 3.9375 -0.632812 3.9375 -1.125 C 3.9375 -1.53125 3.910156 -1.789062 3.859375 -1.90625 C 3.804688 -2.03125 3.710938 -2.117188 3.578125 -2.171875 C 3.453125 -2.222656 3.257812 -2.25 3 -2.25 L 1.765625 -2.25 L 1.765625 0 L 0.59375 0 Z M 0.59375 -5.75 "/></g></g></g><g fill="#000000" fill-opacity="1"><g transform="translate(230.316761, 271.609015)"><g/></g></g><g fill="#000000" fill-opacity="1"><g transform="translate(236.625202, 271.609015)"><g><path d="M 4.8125 -4.734375 L 1.765625 -4.734375 L 1.765625 -3.515625 L 4.5625 -3.515625 L 4.5625 -2.5 L 1.765625 -2.5 L 1.765625 -1.015625 L 4.953125 -1.015625 L 4.953125 0 L 0.59375 0 L 0.59375 -5.75 L 4.8125 -5.75 Z M 4.8125 -4.734375 "/></g></g></g><g fill="#000000" fill-opacity="1"><g transform="translate(246.08208, 271.609015)"><g><path d="M 1.78125 -1.046875 L 4.640625 -1.046875 L 4.640625 0 L 0.59375 0 L 0.59375 -5.75 L 1.78125 -5.75 Z M 1.78125 -1.046875 "/></g></g></g><g fill="#000000" fill-opacity="1"><g transform="translate(255.019427, 271.609015)"><g/></g></g><g fill="#000000" fill-opacity="1"><g transform="translate(261.327858, 271.609015)"><g><path d="M 3.171875 -3.21875 C 3.484375 -3.21875 3.710938 -3.273438 3.859375 -3.390625 C 4.015625 -3.515625 4.09375 -3.71875 4.09375 -4 C 4.09375 -4.238281 4.019531 -4.421875 3.875 -4.546875 C 3.738281 -4.679688 3.535156 -4.75 3.265625 -4.75 L 1.765625 -4.75 L 1.765625 -3.21875 Z M 0.59375 -5.75 L 3.484375 -5.75 C 4.078125 -5.75 4.523438 -5.585938 4.828125 -5.265625 C 5.140625 -4.953125 5.296875 -4.570312 5.296875 -4.125 C 5.296875 -3.457031 5 -3 4.40625 -2.75 C 4.6875 -2.644531 4.878906 -2.492188 4.984375 -2.296875 C 5.085938 -2.109375 5.140625 -1.753906 5.140625 -1.234375 C 5.140625 -0.722656 5.15625 -0.421875 5.1875 -0.328125 C 5.226562 -0.242188 5.296875 -0.1875 5.390625 -0.15625 L 5.390625 0 L 4.0625 0 C 3.976562 -0.257812 3.9375 -0.632812 3.9375 -1.125 C 3.9375 -1.53125 3.910156 -1.789062 3.859375 -1.90625 C 3.804688 -2.03125 3.710938 -2.117188 3.578125 -2.171875 C 3.453125 -2.222656 3.257812 -2.25 3 -2.25 L 1.765625 -2.25 L 1.765625 0 L 0.59375 0 Z M 0.59375 -5.75 "/></g></g></g><g fill="#000000" fill-opacity="1"><g transform="translate(271.171445, 271.609015)"><g><path d="M 4.8125 -4.734375 L 1.765625 -4.734375 L 1.765625 -3.515625 L 4.5625 -3.515625 L 4.5625 -2.5 L 1.765625 -2.5 L 1.765625 -1.015625 L 4.953125 -1.015625 L 4.953125 0 L 0.59375 0 L 0.59375 -5.75 L 4.8125 -5.75 Z M 4.8125 -4.734375 "/></g></g></g><g fill="#000000" fill-opacity="1"><g transform="translate(280.628313, 271.609015)"><g><path d="M 3.15625 0 L 1.953125 0 L 1.953125 -2.171875 L -0.03125 -5.75 L 1.390625 -5.75 L 2.578125 -3.25 L 3.71875 -5.75 L 5.078125 -5.75 L 3.15625 -2.15625 Z M 3.15625 0 "/></g></g></g><g fill="#076d3c" fill-opacity="1"><g transform="translate(71.785944, 177.352709)"><g><path d="M -15.0625 -35.96875 C -15.613281 -37.101562 -16.171875 -37.984375 -16.734375 -38.609375 C -17.296875 -39.234375 -18.054688 -39.632812 -19.015625 -39.8125 L -7.203125 -45.609375 C -6.648438 -45.878906 -6.097656 -45.914062 -5.546875 -45.71875 C -4.992188 -45.53125 -4.488281 -45.222656 -4.03125 -44.796875 C -3.570312 -44.367188 -3.21875 -43.898438 -2.96875 -43.390625 C -2.257812 -41.941406 -1.851562 -40.457031 -1.75 -38.9375 C -1.644531 -37.414062 -1.722656 -35.882812 -1.984375 -34.34375 C -2.253906 -32.800781 -2.582031 -31.273438 -2.96875 -29.765625 C -3.351562 -28.253906 -3.691406 -26.765625 -3.984375 -25.296875 C -4.285156 -23.828125 -4.410156 -22.390625 -4.359375 -20.984375 C -4.304688 -19.578125 -3.960938 -18.222656 -3.328125 -16.921875 C -2.710938 -15.660156 -1.90625 -14.734375 -0.90625 -14.140625 C 0.09375 -13.554688 1.179688 -13.21875 2.359375 -13.125 C 3.535156 -13.03125 4.71875 -13.113281 5.90625 -13.375 C 7.09375 -13.644531 8.191406 -14.03125 9.203125 -14.53125 C 10.523438 -15.175781 11.582031 -16.046875 12.375 -17.140625 C 13.175781 -18.242188 13.632812 -19.5 13.75 -20.90625 C 13.863281 -22.320312 13.523438 -23.832031 12.734375 -25.4375 L 3.203125 -44.90625 C 2.648438 -46.039062 2.09375 -46.921875 1.53125 -47.546875 C 0.96875 -48.179688 0.207031 -48.585938 -0.75 -48.765625 L 12.890625 -55.4375 C 12.492188 -54.59375 12.359375 -53.75 12.484375 -52.90625 C 12.609375 -52.070312 12.945312 -51.085938 13.5 -49.953125 L 23.46875 -29.625 C 24.65625 -27.1875 25.375 -24.945312 25.625 -22.90625 C 25.875 -20.863281 25.765625 -19.007812 25.296875 -17.34375 C 24.835938 -15.6875 24.144531 -14.210938 23.21875 -12.921875 C 22.300781 -11.628906 21.253906 -10.523438 20.078125 -9.609375 C 18.898438 -8.691406 17.734375 -7.953125 16.578125 -7.390625 C 15.398438 -6.816406 14.101562 -6.347656 12.6875 -5.984375 C 11.269531 -5.628906 9.769531 -5.484375 8.1875 -5.546875 C 6.613281 -5.617188 5.035156 -5.984375 3.453125 -6.640625 C 1.867188 -7.304688 0.347656 -8.363281 -1.109375 -9.8125 C -2.578125 -11.257812 -3.90625 -13.203125 -5.09375 -15.640625 Z M -15.0625 -35.96875 "/></g></g></g><g fill="#076d3c" fill-opacity="1"><g transform="translate(99.990419, 163.153703)"><g><path d="M 0.421875 -0.140625 C 0.804688 -0.867188 0.972656 -1.65625 0.921875 -2.5 C 0.878906 -3.34375 0.664062 -4.363281 0.28125 -5.5625 L -10.203125 -37.609375 C -10.597656 -38.804688 -11.023438 -39.753906 -11.484375 -40.453125 C -11.941406 -41.160156 -12.546875 -41.703125 -13.296875 -42.078125 L -0.796875 -46.15625 C -0.078125 -46.394531 0.59375 -46.46875 1.21875 -46.375 C 1.84375 -46.289062 2.546875 -45.898438 3.328125 -45.203125 C 4.109375 -44.515625 5.082031 -43.441406 6.25 -41.984375 C 7.425781 -40.523438 8.953125 -38.539062 10.828125 -36.03125 L 18.609375 -25.578125 C 19.378906 -24.554688 20.132812 -23.539062 20.875 -22.53125 C 21.625 -21.53125 22.335938 -20.625 23.015625 -19.8125 C 23.703125 -19 24.332031 -18.375 24.90625 -17.9375 C 25.488281 -17.5 25.960938 -17.34375 26.328125 -17.46875 C 26.804688 -17.625 27.066406 -17.976562 27.109375 -18.53125 C 27.160156 -19.09375 27.101562 -19.738281 26.9375 -20.46875 C 26.769531 -21.207031 26.582031 -21.898438 26.375 -22.546875 C 25.5 -25.234375 24.382812 -27.546875 23.03125 -29.484375 C 21.6875 -31.429688 20.257812 -33.125 18.75 -34.5625 C 17.25 -36.007812 15.785156 -37.296875 14.359375 -38.421875 C 12.941406 -39.546875 11.703125 -40.640625 10.640625 -41.703125 C 9.578125 -42.765625 8.851562 -43.894531 8.46875 -45.09375 C 8.039062 -46.382812 8.195312 -47.472656 8.9375 -48.359375 C 9.6875 -49.253906 10.675781 -49.90625 11.90625 -50.3125 L 20.671875 -53.1875 C 20.296875 -52.445312 20.128906 -51.65625 20.171875 -50.8125 C 20.210938 -49.976562 20.429688 -48.960938 20.828125 -47.765625 L 31.3125 -15.71875 C 31.695312 -14.519531 32.117188 -13.566406 32.578125 -12.859375 C 33.046875 -12.148438 33.648438 -11.613281 34.390625 -11.25 L 23.40625 -7.65625 C 22.195312 -7.257812 21.0625 -7.21875 20 -7.53125 C 18.9375 -7.84375 17.9375 -8.421875 17 -9.265625 C 16.0625 -10.109375 15.140625 -11.101562 14.234375 -12.25 C 13.335938 -13.394531 12.421875 -14.601562 11.484375 -15.875 C 10.929688 -16.613281 10.242188 -17.519531 9.421875 -18.59375 C 8.597656 -19.675781 7.738281 -20.804688 6.84375 -21.984375 C 5.957031 -23.171875 5.125 -24.269531 4.34375 -25.28125 C 3.5625 -26.289062 2.941406 -27.109375 2.484375 -27.734375 C 1.722656 -28.753906 0.96875 -29.765625 0.21875 -30.765625 C -0.53125 -31.773438 -1.242188 -32.6875 -1.921875 -33.5 C -2.609375 -34.320312 -3.234375 -34.953125 -3.796875 -35.390625 C -4.359375 -35.828125 -4.835938 -35.984375 -5.234375 -35.859375 C -5.671875 -35.710938 -5.921875 -35.359375 -5.984375 -34.796875 C -6.046875 -34.234375 -5.992188 -33.582031 -5.828125 -32.84375 C -5.671875 -32.101562 -5.484375 -31.410156 -5.265625 -30.765625 C -4.390625 -28.085938 -3.28125 -25.773438 -1.9375 -23.828125 C -0.59375 -21.890625 0.835938 -20.203125 2.359375 -18.765625 C 3.890625 -17.328125 5.351562 -16.039062 6.75 -14.90625 C 8.15625 -13.769531 9.390625 -12.671875 10.453125 -11.609375 C 11.515625 -10.554688 12.242188 -9.429688 12.640625 -8.234375 C 13.054688 -6.941406 12.890625 -5.847656 12.140625 -4.953125 C 11.398438 -4.054688 10.410156 -3.40625 9.171875 -3 Z M 0.421875 -0.140625 "/></g></g></g><g fill="#076d3c" fill-opacity="1"><g transform="translate(129.982998, 152.852975)"><g><path d="M 0 0 C 0.78125 -0.90625 1.3125 -2.175781 1.59375 -3.8125 C 1.875 -5.445312 2.132812 -7.207031 2.375 -9.09375 C 2.738281 -12.195312 3.035156 -15.019531 3.265625 -17.5625 C 3.503906 -20.113281 3.679688 -22.582031 3.796875 -24.96875 C 3.910156 -27.363281 3.992188 -29.847656 4.046875 -32.421875 C 4.097656 -35.003906 4.140625 -37.847656 4.171875 -40.953125 C 4.171875 -41.828125 4.023438 -42.65625 3.734375 -43.4375 C 3.453125 -44.226562 3.03125 -44.8125 2.46875 -45.1875 L 21.734375 -48.484375 C 21.335938 -47.953125 21.128906 -47.265625 21.109375 -46.421875 C 21.097656 -45.578125 21.238281 -44.75 21.53125 -43.9375 C 22.59375 -41.019531 23.578125 -38.351562 24.484375 -35.9375 C 25.398438 -33.53125 26.304688 -31.210938 27.203125 -28.984375 C 28.097656 -26.765625 29.082031 -24.492188 30.15625 -22.171875 C 31.226562 -19.859375 32.445312 -17.296875 33.8125 -14.484375 C 34.675781 -12.785156 35.515625 -11.210938 36.328125 -9.765625 C 37.148438 -8.316406 38.070312 -7.296875 39.09375 -6.703125 L 21.125 -3.625 C 21.53125 -4.28125 21.796875 -5.050781 21.921875 -5.9375 C 22.054688 -6.832031 22.046875 -7.734375 21.890625 -8.640625 C 21.765625 -9.359375 21.398438 -10.675781 20.796875 -12.59375 C 20.203125 -14.519531 19.476562 -16.6875 18.625 -19.09375 L 12.234375 -18 C 13.296875 -16.300781 14.289062 -14.601562 15.21875 -12.90625 C 16.15625 -11.207031 16.773438 -9.460938 17.078125 -7.671875 C 17.191406 -7.003906 17.222656 -6.289062 17.171875 -5.53125 C 17.128906 -4.78125 16.921875 -4.128906 16.546875 -3.578125 C 16.179688 -3.023438 15.566406 -2.671875 14.703125 -2.515625 Z M 11.0625 -19.8125 L 17.890625 -20.984375 C 17.128906 -22.992188 16.320312 -24.992188 15.46875 -26.984375 C 14.613281 -28.972656 13.757812 -30.773438 12.90625 -32.390625 C 12.050781 -34.003906 11.238281 -35.273438 10.46875 -36.203125 C 9.695312 -37.128906 9.007812 -37.539062 8.40625 -37.4375 C 7.644531 -37.300781 7.101562 -36.875 6.78125 -36.15625 C 6.457031 -35.445312 6.285156 -34.5625 6.265625 -33.5 C 6.253906 -32.445312 6.347656 -31.34375 6.546875 -30.1875 C 6.878906 -28.257812 7.46875 -26.441406 8.3125 -24.734375 C 9.15625 -23.035156 10.070312 -21.394531 11.0625 -19.8125 Z M 9.25 -49 C 8.457031 -48.863281 7.695312 -48.828125 6.96875 -48.890625 C 6.25 -48.953125 5.851562 -49.175781 5.78125 -49.5625 C 5.75 -49.769531 5.875 -49.867188 6.15625 -49.859375 C 6.445312 -49.847656 6.835938 -49.960938 7.328125 -50.203125 C 7.929688 -50.472656 8.453125 -50.773438 8.890625 -51.109375 C 9.328125 -51.441406 9.75 -51.753906 10.15625 -52.046875 C 11.125 -52.828125 11.820312 -53.566406 12.25 -54.265625 C 12.6875 -54.960938 13.035156 -55.550781 13.296875 -56.03125 C 13.554688 -56.507812 13.875 -56.78125 14.25 -56.84375 C 14.625 -56.90625 14.960938 -56.789062 15.265625 -56.5 C 15.566406 -56.207031 15.8125 -55.859375 16 -55.453125 C 16.195312 -55.054688 16.320312 -54.695312 16.375 -54.375 C 16.445312 -53.976562 16.273438 -53.503906 15.859375 -52.953125 C 15.441406 -52.398438 14.875 -51.84375 14.15625 -51.28125 C 13.445312 -50.726562 12.660156 -50.242188 11.796875 -49.828125 C 10.941406 -49.421875 10.09375 -49.144531 9.25 -49 Z M 9.25 -49 "/></g></g></g><g fill="#076d3c" fill-opacity="1"><g transform="translate(164.178064, 146.73676)"><g><path d="M 0.4375 -0.015625 C 1.019531 -0.609375 1.410156 -1.3125 1.609375 -2.125 C 1.804688 -2.945312 1.890625 -3.988281 1.859375 -5.25 L 1.0625 -38.953125 C 1.03125 -40.210938 0.894531 -41.242188 0.65625 -42.046875 C 0.425781 -42.859375 0.00390625 -43.550781 -0.609375 -44.125 L 12.546875 -44.4375 C 13.304688 -44.445312 13.972656 -44.316406 14.546875 -44.046875 C 15.117188 -43.785156 15.675781 -43.210938 16.21875 -42.328125 C 16.769531 -41.441406 17.394531 -40.128906 18.09375 -38.390625 C 18.800781 -36.660156 19.6875 -34.320312 20.75 -31.375 L 25.203125 -19.140625 C 25.640625 -17.941406 26.066406 -16.753906 26.484375 -15.578125 C 26.910156 -14.398438 27.332031 -13.316406 27.75 -12.328125 C 28.175781 -11.347656 28.597656 -10.566406 29.015625 -9.984375 C 29.441406 -9.410156 29.847656 -9.128906 30.234375 -9.140625 C 30.734375 -9.148438 31.085938 -9.414062 31.296875 -9.9375 C 31.503906 -10.457031 31.632812 -11.09375 31.6875 -11.84375 C 31.75 -12.59375 31.769531 -13.304688 31.75 -13.984375 C 31.6875 -16.804688 31.285156 -19.34375 30.546875 -21.59375 C 29.816406 -23.84375 28.9375 -25.875 27.90625 -27.6875 C 26.882812 -29.5 25.859375 -31.148438 24.828125 -32.640625 C 23.796875 -34.128906 22.925781 -35.535156 22.21875 -36.859375 C 21.507812 -38.179688 21.140625 -39.472656 21.109375 -40.734375 C 21.078125 -42.085938 21.546875 -43.085938 22.515625 -43.734375 C 23.484375 -44.378906 24.609375 -44.71875 25.890625 -44.75 L 35.125 -44.96875 C 34.550781 -44.363281 34.160156 -43.648438 33.953125 -42.828125 C 33.753906 -42.015625 33.671875 -40.976562 33.703125 -39.71875 L 34.5 -6.015625 C 34.53125 -4.753906 34.664062 -3.71875 34.90625 -2.90625 C 35.144531 -2.101562 35.566406 -1.421875 36.171875 -0.859375 L 24.625 -0.578125 C 23.351562 -0.546875 22.253906 -0.832031 21.328125 -1.4375 C 20.398438 -2.050781 19.609375 -2.894531 18.953125 -3.96875 C 18.296875 -5.039062 17.703125 -6.253906 17.171875 -7.609375 C 16.640625 -8.972656 16.109375 -10.398438 15.578125 -11.890625 C 15.265625 -12.765625 14.867188 -13.832031 14.390625 -15.09375 C 13.921875 -16.363281 13.425781 -17.691406 12.90625 -19.078125 C 12.382812 -20.472656 11.894531 -21.765625 11.4375 -22.953125 C 10.988281 -24.148438 10.632812 -25.117188 10.375 -25.859375 C 9.945312 -27.046875 9.515625 -28.226562 9.078125 -29.40625 C 8.648438 -30.582031 8.226562 -31.660156 7.8125 -32.640625 C 7.394531 -33.617188 6.976562 -34.394531 6.5625 -34.96875 C 6.15625 -35.550781 5.742188 -35.835938 5.328125 -35.828125 C 4.859375 -35.816406 4.507812 -35.550781 4.28125 -35.03125 C 4.0625 -34.507812 3.925781 -33.875 3.875 -33.125 C 3.820312 -32.375 3.800781 -31.660156 3.8125 -30.984375 C 3.882812 -28.171875 4.285156 -25.640625 5.015625 -23.390625 C 5.742188 -21.140625 6.628906 -19.101562 7.671875 -17.28125 C 8.710938 -15.46875 9.742188 -13.816406 10.765625 -12.328125 C 11.785156 -10.835938 12.648438 -9.429688 13.359375 -8.109375 C 14.066406 -6.785156 14.4375 -5.492188 14.46875 -4.234375 C 14.5 -2.878906 14.03125 -1.878906 13.0625 -1.234375 C 12.09375 -0.597656 10.957031 -0.265625 9.65625 -0.234375 Z M 0.4375 -0.015625 "/></g></g></g><g fill="#076d3c" fill-opacity="1"><g transform="translate(196.562968, 146.273077)"><g><path d="M 0.4375 0.03125 C 1.070312 -0.507812 1.523438 -1.175781 1.796875 -1.96875 C 2.078125 -2.757812 2.265625 -3.785156 2.359375 -5.046875 L 4.828125 -38.671875 C 4.910156 -39.929688 4.875 -40.972656 4.71875 -41.796875 C 4.5625 -42.628906 4.207031 -43.351562 3.65625 -43.96875 L 18.390625 -42.890625 C 17.773438 -42.359375 17.320312 -41.691406 17.03125 -40.890625 C 16.75 -40.097656 16.566406 -39.070312 16.484375 -37.8125 L 14.015625 -4.1875 C 13.921875 -2.925781 13.957031 -1.882812 14.125 -1.0625 C 14.289062 -0.238281 14.640625 0.484375 15.171875 1.109375 Z M 0.4375 0.03125 "/></g></g></g><g fill="#076d3c" fill-opacity="1"><g transform="translate(207.842628, 145.96585)"><g><path d="M 9.25 -37.859375 C 9.488281 -39.097656 9.570312 -40.132812 9.5 -40.96875 C 9.4375 -41.8125 9.171875 -42.578125 8.703125 -43.265625 L 22.484375 -40.625 C 23.523438 -40.425781 24.296875 -39.941406 24.796875 -39.171875 C 25.296875 -38.410156 25.65625 -37.289062 25.875 -35.8125 C 26.101562 -34.332031 26.316406 -32.421875 26.515625 -30.078125 C 26.710938 -27.734375 27.03125 -24.898438 27.46875 -21.578125 C 29.101562 -24.503906 30.445312 -27.019531 31.5 -29.125 C 32.550781 -31.226562 33.453125 -32.925781 34.203125 -34.21875 C 34.960938 -35.507812 35.710938 -36.421875 36.453125 -36.953125 C 37.191406 -37.484375 38.082031 -37.648438 39.125 -37.453125 L 52.828125 -34.84375 C 52.148438 -34.375 51.625 -33.757812 51.25 -33 C 50.875 -32.25 50.566406 -31.253906 50.328125 -30.015625 L 44 3.109375 C 43.769531 4.347656 43.6875 5.382812 43.75 6.21875 C 43.820312 7.0625 44.09375 7.820312 44.5625 8.5 L 30.03125 5.734375 C 30.71875 5.273438 31.25 4.664062 31.625 3.90625 C 32 3.144531 32.300781 2.144531 32.53125 0.90625 L 37.359375 -24.328125 C 37.484375 -24.992188 37.578125 -25.695312 37.640625 -26.4375 C 37.710938 -27.1875 37.6875 -27.832031 37.5625 -28.375 C 37.4375 -28.925781 37.125 -29.25 36.625 -29.34375 C 36.226562 -29.425781 35.691406 -29.035156 35.015625 -28.171875 C 34.347656 -27.316406 33.59375 -26.144531 32.75 -24.65625 C 31.914062 -23.164062 31.046875 -21.492188 30.140625 -19.640625 C 29.242188 -17.796875 28.351562 -15.925781 27.46875 -14.03125 C 26.6875 -12.300781 25.9375 -10.625 25.21875 -9 C 24.507812 -7.382812 23.847656 -5.929688 23.234375 -4.640625 C 22.617188 -3.347656 22.046875 -2.347656 21.515625 -1.640625 C 20.984375 -0.929688 20.503906 -0.617188 20.078125 -0.703125 C 19.691406 -0.773438 19.34375 -1.28125 19.03125 -2.21875 C 18.726562 -3.164062 18.457031 -4.390625 18.21875 -5.890625 C 17.976562 -7.390625 17.742188 -9.035156 17.515625 -10.828125 C 17.296875 -12.617188 17.070312 -14.40625 16.84375 -16.1875 C 16.757812 -16.738281 16.648438 -17.535156 16.515625 -18.578125 C 16.390625 -19.628906 16.234375 -20.804688 16.046875 -22.109375 C 15.867188 -23.421875 15.660156 -24.75 15.421875 -26.09375 C 15.179688 -27.445312 14.925781 -28.703125 14.65625 -29.859375 C 14.382812 -31.023438 14.082031 -31.972656 13.75 -32.703125 C 13.425781 -33.441406 13.09375 -33.84375 12.75 -33.90625 C 12.289062 -33.988281 11.898438 -33.800781 11.578125 -33.34375 C 11.253906 -32.882812 10.984375 -32.289062 10.765625 -31.5625 C 10.554688 -30.84375 10.390625 -30.148438 10.265625 -29.484375 C 9.734375 -26.710938 9.585938 -24.148438 9.828125 -21.796875 C 10.066406 -19.441406 10.503906 -17.269531 11.140625 -15.28125 C 11.773438 -13.289062 12.4375 -11.457031 13.125 -9.78125 C 13.8125 -8.113281 14.359375 -6.554688 14.765625 -5.109375 C 15.171875 -3.660156 15.257812 -2.320312 15.03125 -1.09375 C 14.769531 0.238281 14.097656 1.113281 13.015625 1.53125 C 11.941406 1.957031 10.765625 2.050781 9.484375 1.8125 L 0.4375 0.078125 C 1.113281 -0.378906 1.640625 -0.984375 2.015625 -1.734375 C 2.390625 -2.492188 2.691406 -3.492188 2.921875 -4.734375 Z M 9.25 -37.859375 "/></g></g></g><g fill="#076d3c" fill-opacity="1"><g transform="translate(247.841304, 153.643314)"><g><path d="M 8.46875 -20.40625 C 9.195312 -22.457031 10.117188 -24.4375 11.234375 -26.34375 C 12.359375 -28.257812 13.644531 -29.988281 15.09375 -31.53125 C 16.550781 -33.070312 18.128906 -34.335938 19.828125 -35.328125 C 21.523438 -36.316406 23.328125 -36.925781 25.234375 -37.15625 C 27.148438 -37.394531 29.132812 -37.144531 31.1875 -36.40625 C 32.269531 -36.019531 33.25 -35.515625 34.125 -34.890625 C 35.007812 -34.265625 35.921875 -33.628906 36.859375 -32.984375 C 37.804688 -32.335938 38.898438 -31.789062 40.140625 -31.34375 C 41.117188 -31 41.941406 -30.863281 42.609375 -30.9375 C 43.273438 -31.007812 43.859375 -31.109375 44.359375 -31.234375 C 44.859375 -31.367188 45.316406 -31.363281 45.734375 -31.21875 C 46.285156 -31.019531 46.488281 -30.59375 46.34375 -29.9375 C 46.207031 -29.28125 45.867188 -28.523438 45.328125 -27.671875 C 44.796875 -26.816406 44.175781 -26.007812 43.46875 -25.25 C 42.957031 -24.707031 42.28125 -24.09375 41.4375 -23.40625 C 40.601562 -22.71875 39.679688 -22.195312 38.671875 -21.84375 C 37.671875 -21.488281 36.671875 -21.488281 35.671875 -21.84375 C 34.210938 -22.363281 32.960938 -22.992188 31.921875 -23.734375 C 30.890625 -24.484375 29.984375 -25.28125 29.203125 -26.125 C 28.429688 -26.96875 27.695312 -27.789062 27 -28.59375 C 26.300781 -29.394531 25.554688 -30.125 24.765625 -30.78125 C 23.972656 -31.445312 23.035156 -31.972656 21.953125 -32.359375 C 21.265625 -32.609375 20.632812 -32.625 20.0625 -32.40625 C 19.488281 -32.1875 18.976562 -31.84375 18.53125 -31.375 C 18.082031 -30.914062 17.707031 -30.425781 17.40625 -29.90625 C 17.113281 -29.382812 16.894531 -28.929688 16.75 -28.546875 C 16.6875 -28.359375 16.554688 -28.007812 16.359375 -27.5 C 16.160156 -26.988281 15.960938 -26.445312 15.765625 -25.875 C 15.578125 -25.300781 15.472656 -24.785156 15.453125 -24.328125 C 15.441406 -23.878906 15.578125 -23.609375 15.859375 -23.515625 C 16.265625 -23.367188 16.75 -23.398438 17.3125 -23.609375 C 17.875 -23.816406 18.578125 -23.972656 19.421875 -24.078125 C 20.273438 -24.179688 21.304688 -24.015625 22.515625 -23.578125 C 23.546875 -23.210938 24.484375 -22.679688 25.328125 -21.984375 C 26.179688 -21.296875 26.984375 -20.566406 27.734375 -19.796875 C 28.492188 -19.023438 29.242188 -18.3125 29.984375 -17.65625 C 30.734375 -17 31.507812 -16.523438 32.3125 -16.234375 C 32.945312 -16.015625 33.492188 -15.976562 33.953125 -16.125 C 34.421875 -16.269531 34.8125 -16.4375 35.125 -16.625 C 35.4375 -16.8125 35.707031 -16.863281 35.9375 -16.78125 C 36.257812 -16.664062 36.429688 -16.34375 36.453125 -15.8125 C 36.472656 -15.289062 36.363281 -14.695312 36.125 -14.03125 C 35.875 -13.332031 35.472656 -12.628906 34.921875 -11.921875 C 34.367188 -11.210938 33.679688 -10.601562 32.859375 -10.09375 C 32.046875 -9.582031 31.101562 -9.253906 30.03125 -9.109375 C 28.96875 -8.972656 27.800781 -9.132812 26.53125 -9.59375 C 25.3125 -10.019531 24.296875 -10.671875 23.484375 -11.546875 C 22.671875 -12.421875 21.988281 -13.375 21.4375 -14.40625 C 20.882812 -15.445312 20.382812 -16.457031 19.9375 -17.4375 C 19.488281 -18.425781 19.023438 -19.296875 18.546875 -20.046875 C 18.066406 -20.804688 17.484375 -21.3125 16.796875 -21.5625 C 16.359375 -21.71875 16.015625 -21.679688 15.765625 -21.453125 C 15.523438 -21.234375 15.351562 -20.9375 15.25 -20.5625 C 15.15625 -20.195312 15.097656 -19.847656 15.078125 -19.515625 C 15.003906 -16.691406 15.34375 -14.039062 16.09375 -11.5625 C 16.851562 -9.082031 17.953125 -6.960938 19.390625 -5.203125 C 20.828125 -3.441406 22.492188 -2.222656 24.390625 -1.546875 C 25.859375 -1.015625 27.132812 -0.789062 28.21875 -0.875 C 29.3125 -0.957031 30.265625 -1.191406 31.078125 -1.578125 C 31.898438 -1.972656 32.609375 -2.410156 33.203125 -2.890625 C 33.796875 -3.378906 34.328125 -3.769531 34.796875 -4.0625 C 35.265625 -4.363281 35.707031 -4.441406 36.125 -4.296875 C 36.375 -4.203125 36.5625 -3.984375 36.6875 -3.640625 C 36.8125 -3.304688 36.695312 -2.648438 36.34375 -1.671875 C 35.84375 -0.265625 35.003906 1.113281 33.828125 2.46875 C 32.660156 3.832031 31.238281 4.992188 29.5625 5.953125 C 27.894531 6.921875 26.046875 7.535156 24.015625 7.796875 C 21.984375 8.054688 19.859375 7.789062 17.640625 7 C 15.316406 6.175781 13.289062 4.957031 11.5625 3.34375 C 9.84375 1.726562 8.53125 -0.238281 7.625 -2.5625 C 6.726562 -4.882812 6.328125 -7.546875 6.421875 -10.546875 C 6.515625 -13.546875 7.195312 -16.832031 8.46875 -20.40625 Z M 8.46875 -20.40625 "/></g></g></g><g fill="#076d3c" fill-opacity="1"><g transform="translate(276.066481, 163.472483)"><g><path d="M 12.25 6.953125 C 10.59375 6.117188 9.160156 5.082031 7.953125 3.84375 C 6.753906 2.601562 5.804688 1.28125 5.109375 -0.125 C 4.421875 -1.53125 4.03125 -2.941406 3.9375 -4.359375 C 3.84375 -5.773438 4.09375 -7.070312 4.6875 -8.25 C 4.925781 -8.71875 5.441406 -9.101562 6.234375 -9.40625 C 7.035156 -9.707031 7.984375 -9.925781 9.078125 -10.0625 C 10.171875 -10.207031 11.269531 -10.28125 12.375 -10.28125 C 13.488281 -10.28125 14.492188 -10.222656 15.390625 -10.109375 C 16.285156 -10.003906 16.941406 -9.832031 17.359375 -9.59375 C 17.953125 -9.257812 18.359375 -8.796875 18.578125 -8.203125 C 18.804688 -7.609375 18.675781 -6.957031 18.1875 -6.25 C 17.53125 -5.289062 16.867188 -4.257812 16.203125 -3.15625 C 15.546875 -2.0625 15.082031 -0.957031 14.8125 0.15625 C 14.539062 1.28125 14.632812 2.347656 15.09375 3.359375 C 15.550781 4.378906 16.539062 5.28125 18.0625 6.0625 C 19.082031 6.582031 20.140625 6.832031 21.234375 6.8125 C 22.335938 6.789062 23.363281 6.507812 24.3125 5.96875 C 25.257812 5.4375 25.984375 4.675781 26.484375 3.6875 C 27.171875 2.34375 27.394531 1.046875 27.15625 -0.203125 C 26.914062 -1.460938 26.394531 -2.675781 25.59375 -3.84375 C 24.789062 -5.019531 23.832031 -6.140625 22.71875 -7.203125 C 21.09375 -8.796875 19.578125 -10.367188 18.171875 -11.921875 C 16.765625 -13.472656 15.632812 -15.0625 14.78125 -16.6875 C 13.925781 -18.320312 13.46875 -20.035156 13.40625 -21.828125 C 13.34375 -23.617188 13.835938 -25.550781 14.890625 -27.625 C 15.734375 -29.269531 16.84375 -30.648438 18.21875 -31.765625 C 19.59375 -32.890625 21.113281 -33.71875 22.78125 -34.25 C 24.457031 -34.789062 26.1875 -34.992188 27.96875 -34.859375 C 29.75 -34.722656 31.46875 -34.234375 33.125 -33.390625 C 34.144531 -32.878906 35.050781 -32.253906 35.84375 -31.515625 C 36.644531 -30.785156 37.460938 -30.039062 38.296875 -29.28125 C 39.140625 -28.519531 40.160156 -27.832031 41.359375 -27.21875 C 42.285156 -26.75 43.082031 -26.507812 43.75 -26.5 C 44.425781 -26.5 45.019531 -26.53125 45.53125 -26.59375 C 46.039062 -26.664062 46.492188 -26.601562 46.890625 -26.40625 C 47.359375 -26.15625 47.515625 -25.738281 47.359375 -25.15625 C 47.210938 -24.570312 46.847656 -23.90625 46.265625 -23.15625 C 45.691406 -22.414062 44.976562 -21.675781 44.125 -20.9375 C 43.28125 -20.207031 42.359375 -19.570312 41.359375 -19.03125 C 40.359375 -18.5 39.375 -18.148438 38.40625 -17.984375 C 37.4375 -17.828125 36.539062 -17.957031 35.71875 -18.375 C 34.28125 -19.101562 33.070312 -20.007812 32.09375 -21.09375 C 31.113281 -22.1875 30.21875 -23.332031 29.40625 -24.53125 C 28.59375 -25.738281 27.722656 -26.875 26.796875 -27.9375 C 25.878906 -29.007812 24.765625 -29.878906 23.453125 -30.546875 C 22.710938 -30.921875 21.953125 -30.96875 21.171875 -30.6875 C 20.390625 -30.40625 19.804688 -29.882812 19.421875 -29.125 C 18.878906 -28.070312 18.851562 -27 19.34375 -25.90625 C 19.832031 -24.820312 20.640625 -23.75 21.765625 -22.6875 C 22.890625 -21.625 24.175781 -20.585938 25.625 -19.578125 C 27.082031 -18.578125 28.523438 -17.632812 29.953125 -16.75 C 32.046875 -15.414062 33.675781 -13.832031 34.84375 -12 C 36.007812 -10.164062 36.65625 -8.21875 36.78125 -6.15625 C 36.90625 -4.101562 36.453125 -2.070312 35.421875 -0.0625 C 34.535156 1.695312 33.34375 3.300781 31.84375 4.75 C 30.34375 6.195312 28.597656 7.332031 26.609375 8.15625 C 24.628906 8.976562 22.425781 9.332031 20 9.21875 C 17.582031 9.113281 15 8.359375 12.25 6.953125 Z M 12.25 6.953125 "/></g></g></g><g fill="#076d3c" fill-opacity="1"><g transform="translate(301.425616, 176.594581)"><g/></g></g><g fill="#076d3c" fill-opacity="1"><g transform="translate(211.098305, 193.646246)"><g><path d="M 19.3125 -14.71875 C 19.269531 -13.394531 18.96875 -12.28125 18.40625 -11.375 C 17.851562 -10.476562 17.140625 -9.738281 16.265625 -9.15625 C 15.390625 -8.582031 14.460938 -8.128906 13.484375 -7.796875 C 12.503906 -7.472656 11.566406 -7.222656 10.671875 -7.046875 C 9.773438 -6.878906 9.03125 -6.75 8.4375 -6.65625 L 8.296875 -1.828125 C 8.285156 -1.304688 8.457031 -0.859375 8.8125 -0.484375 C 9.175781 -0.117188 9.617188 0.0664062 10.140625 0.078125 L 10.140625 0.265625 L 0.9375 0.03125 L 0.9375 -0.15625 C 1.445312 -0.144531 1.890625 -0.3125 2.265625 -0.65625 C 2.640625 -1.007812 2.832031 -1.445312 2.84375 -1.96875 L 3.3125 -19.578125 C 3.320312 -20.085938 3.148438 -20.53125 2.796875 -20.90625 C 2.441406 -21.28125 2.007812 -21.472656 1.5 -21.484375 L 1.5 -21.671875 L 13.296875 -21.375 C 14.441406 -21.34375 15.472656 -21.023438 16.390625 -20.421875 C 17.304688 -19.816406 18.03125 -19.015625 18.5625 -18.015625 C 19.09375 -17.015625 19.34375 -15.914062 19.3125 -14.71875 Z M 10.140625 -21.265625 L 8.8125 -21.296875 L 8.4375 -6.96875 C 10.226562 -7.71875 11.507812 -8.769531 12.28125 -10.125 C 13.050781 -11.476562 13.460938 -13.0625 13.515625 -14.875 C 13.535156 -16.03125 13.398438 -17.085938 13.109375 -18.046875 C 12.816406 -19.015625 12.414062 -19.785156 11.90625 -20.359375 C 11.394531 -20.941406 10.804688 -21.242188 10.140625 -21.265625 Z M 10.140625 -21.265625 "/></g></g></g><g fill="#076d3c" fill-opacity="1"><g transform="translate(229.224601, 194.122116)"><g><path d="M 8.5625 -15.3125 C 9.863281 -15.28125 11.035156 -14.898438 12.078125 -14.171875 C 13.128906 -13.441406 13.957031 -12.472656 14.5625 -11.265625 C 15.175781 -10.054688 15.460938 -8.726562 15.421875 -7.28125 C 15.378906 -5.832031 15.019531 -4.523438 14.34375 -3.359375 C 13.675781 -2.191406 12.800781 -1.269531 11.71875 -0.59375 C 10.644531 0.0820312 9.457031 0.40625 8.15625 0.375 C 6.851562 0.332031 5.675781 -0.0507812 4.625 -0.78125 C 3.570312 -1.507812 2.738281 -2.472656 2.125 -3.671875 C 1.519531 -4.878906 1.238281 -6.207031 1.28125 -7.65625 C 1.320312 -9.101562 1.675781 -10.410156 2.34375 -11.578125 C 3.019531 -12.753906 3.898438 -13.679688 4.984375 -14.359375 C 6.066406 -15.035156 7.257812 -15.351562 8.5625 -15.3125 Z M 8.15625 0.1875 C 9.75 0.226562 10.613281 -2.300781 10.75 -7.40625 C 10.882812 -12.507812 10.15625 -15.082031 8.5625 -15.125 C 6.945312 -15.164062 6.070312 -12.632812 5.9375 -7.53125 C 5.800781 -2.425781 6.539062 0.144531 8.15625 0.1875 Z M 8.15625 0.1875 "/></g></g></g><g fill="#076d3c" fill-opacity="1"><g transform="translate(243.818547, 194.505245)"><g><path d="M 11.078125 -15.5625 C 11.742188 -15.519531 12.304688 -15.265625 12.765625 -14.796875 C 13.222656 -14.335938 13.445312 -13.773438 13.4375 -13.109375 C 13.414062 -12.453125 13.160156 -11.890625 12.671875 -11.421875 C 12.191406 -10.953125 11.617188 -10.726562 10.953125 -10.75 C 10.316406 -10.769531 9.765625 -11.023438 9.296875 -11.515625 C 8.835938 -12.003906 8.617188 -12.578125 8.640625 -13.234375 C 8.640625 -13.441406 8.65625 -13.597656 8.6875 -13.703125 C 8.726562 -13.804688 8.75 -13.921875 8.75 -14.046875 C 8.757812 -14.347656 8.597656 -14.503906 8.265625 -14.515625 C 7.972656 -14.523438 7.578125 -14.414062 7.078125 -14.1875 L 6.75 -1.53125 C 6.738281 -1.15625 6.847656 -0.820312 7.078125 -0.53125 C 7.316406 -0.238281 7.613281 -0.0546875 7.96875 0.015625 L 7.96875 0.203125 L 0.78125 0.015625 L 0.78125 -0.171875 C 1.125 -0.222656 1.425781 -0.390625 1.6875 -0.671875 C 1.945312 -0.953125 2.082031 -1.28125 2.09375 -1.65625 L 2.375 -12.6875 C 2.382812 -13.082031 2.269531 -13.421875 2.03125 -13.703125 C 1.789062 -13.992188 1.5 -14.175781 1.15625 -14.25 L 1.15625 -14.4375 L 6.484375 -15.0625 C 6.503906 -15.0625 6.519531 -15.0625 6.53125 -15.0625 C 6.539062 -15.0625 6.554688 -15.0625 6.578125 -15.0625 C 6.742188 -15.050781 6.867188 -14.992188 6.953125 -14.890625 C 7.046875 -14.785156 7.09375 -14.660156 7.09375 -14.515625 L 7.078125 -14.359375 C 7.640625 -14.628906 8.296875 -14.910156 9.046875 -15.203125 C 9.804688 -15.503906 10.484375 -15.625 11.078125 -15.5625 Z M 11.078125 -15.5625 "/></g></g></g><g fill="#076d3c" fill-opacity="1"><g transform="translate(255.964648, 194.824113)"><g/></g></g><g fill="#076d3c" fill-opacity="1"><g transform="translate(262.936163, 195.007144)"><g><path d="M 10.828125 -1.703125 C 11.429688 -1.679688 12.007812 -1.8125 12.5625 -2.09375 C 13.125 -2.375 13.628906 -2.765625 14.078125 -3.265625 L 14.234375 -3.15625 C 13.578125 -2.0625 12.710938 -1.191406 11.640625 -0.546875 C 10.578125 0.0976562 9.414062 0.40625 8.15625 0.375 C 6.851562 0.332031 5.675781 -0.0507812 4.625 -0.78125 C 3.570312 -1.507812 2.738281 -2.472656 2.125 -3.671875 C 1.519531 -4.878906 1.238281 -6.207031 1.28125 -7.65625 C 1.320312 -9.101562 1.675781 -10.410156 2.34375 -11.578125 C 3.019531 -12.753906 3.898438 -13.679688 4.984375 -14.359375 C 6.066406 -15.035156 7.257812 -15.351562 8.5625 -15.3125 C 9.695312 -15.28125 10.707031 -14.984375 11.59375 -14.421875 C 12.476562 -13.867188 13.210938 -13.125 13.796875 -12.1875 C 14.390625 -11.25 14.78125 -10.1875 14.96875 -9 L 5.984375 -9.234375 C 5.941406 -7.867188 6.132812 -6.617188 6.5625 -5.484375 C 6.988281 -4.347656 7.570312 -3.4375 8.3125 -2.75 C 9.0625 -2.070312 9.898438 -1.722656 10.828125 -1.703125 Z M 8.5625 -15.125 C 8.125 -15.132812 7.757812 -14.984375 7.46875 -14.671875 C 7.1875 -14.367188 6.945312 -13.960938 6.75 -13.453125 C 6.550781 -12.953125 6.398438 -12.429688 6.296875 -11.890625 C 6.203125 -11.359375 6.128906 -10.863281 6.078125 -10.40625 C 6.023438 -9.957031 5.992188 -9.628906 5.984375 -9.421875 L 10.765625 -9.296875 C 10.679688 -13.148438 9.945312 -15.09375 8.5625 -15.125 Z M 8.5625 -15.125 "/></g></g></g><g fill="#076d3c" fill-opacity="1"><g transform="translate(276.724501, 195.369122)"><g><path d="M 7.25 -20.96875 L 6.75 -1.53125 C 6.738281 -1.15625 6.847656 -0.820312 7.078125 -0.53125 C 7.316406 -0.238281 7.613281 -0.0546875 7.96875 0.015625 L 7.96875 0.203125 L 0.78125 0.015625 L 0.78125 -0.171875 C 1.125 -0.222656 1.425781 -0.390625 1.6875 -0.671875 C 1.945312 -0.953125 2.082031 -1.28125 2.09375 -1.65625 L 2.546875 -19.171875 C 2.554688 -19.546875 2.441406 -19.878906 2.203125 -20.171875 C 1.960938 -20.460938 1.671875 -20.644531 1.328125 -20.71875 L 1.328125 -20.90625 L 6.640625 -21.546875 C 6.660156 -21.546875 6.675781 -21.546875 6.6875 -21.546875 C 6.695312 -21.546875 6.710938 -21.546875 6.734375 -21.546875 C 7.085938 -21.535156 7.257812 -21.34375 7.25 -20.96875 Z M 7.25 -20.96875 "/></g></g></g><g clip-path="url(#70ce1439d6)"><g clip-path="url(#3fe092740c)"><path fill="#c38820" d="M 153.945312 152.140625 L 158.523438 152.140625 L 158.523438 156.71875 L 153.945312 156.71875 Z M 153.945312 152.140625 " fill-opacity="1" fill-rule="nonzero"/></g></g></svg>